<?xml version="1.0" encoding="iso-8859-1"?>
<!-- Uploaded to: SVG Repo, www.svgrepo.com, Generator: SVG Repo Mixer Tools -->
<svg height="800px" width="800px" version="1.1" id="Layer_1" xmlns="http://www.w3.org/2000/svg" xmlns:xlink="http://www.w3.org/1999/xlink" 
	 viewBox="0 0 512 512" xml:space="preserve">
<path style="fill:#FFDCE1;" d="M508.483,140.691l-6.144,9.12L286.406,470.334l-11.765,17.469c-0.014,0.028-0.028,0.041-0.041,0.055
	l-0.193,0.303c-0.069,0.083-0.138,0.152-0.193,0.234c-0.372,0.551-0.785,1.075-1.212,1.584c-0.152,0.179-0.317,0.358-0.482,0.537
	c-0.358,0.4-0.744,0.785-1.157,1.171c-0.193,0.179-0.386,0.372-0.592,0.551c-0.413,0.358-0.868,0.689-1.309,1.019
	c-0.193,0.138-0.372,0.303-0.565,0.427l-0.014,0.014c-0.592,0.4-1.199,0.758-1.819,1.088c-0.165,0.083-0.317,0.179-0.482,0.248
	c-0.661,0.344-1.336,0.647-2.011,0.909c-0.041,0.014-0.069,0.014-0.096,0.028c-0.73,0.276-1.447,0.496-2.19,0.675
	c-0.055,0.014-0.124,0.028-0.179,0.055c-0.758,0.179-1.502,0.303-2.259,0.4c-0.096,0.014-0.193,0.028-0.303,0.041
	c-0.744,0.083-1.502,0.138-2.259,0.138c-0.014,0-0.014,0-0.014,0c-0.014,0-0.014,0-0.028,0c-0.413,0-0.827-0.014-1.24-0.055
	c-0.331-0.014-0.675-0.041-1.006-0.083c-0.11-0.014-0.207-0.028-0.303-0.041c-0.744-0.083-1.502-0.22-2.232-0.4
	c-0.069-0.014-0.138-0.041-0.207-0.055c-0.179-0.041-0.372-0.096-0.551-0.152c-0.551-0.138-1.088-0.317-1.626-0.51
	c-0.028-0.014-0.055-0.028-0.083-0.028c-0.675-0.262-1.336-0.565-1.998-0.895l-0.496-0.248c-0.606-0.331-1.199-0.675-1.791-1.061
	c0-0.014,0-0.014-0.014-0.014c-0.22-0.152-0.413-0.331-0.634-0.482c-0.427-0.317-0.84-0.62-1.24-0.964
	c-0.207-0.179-0.413-0.372-0.62-0.565c-0.4-0.372-0.771-0.758-1.143-1.143c-0.165-0.179-0.317-0.358-0.482-0.551
	c-0.427-0.496-0.827-1.019-1.212-1.557c-0.055-0.083-0.124-0.152-0.193-0.248l-0.193-0.289c-0.014-0.014-0.028-0.028-0.041-0.055
	l-13.708-20.141L9.898,149.811l-5.166-7.591c-6.723-8.114-6.282-20.169,1.323-27.773l93.68-93.68
	c4.147-4.147,9.616-6.144,15.058-6.034c0.138,0,0.276-0.014,0.413-0.014h282.418c6.172,0,11.696,2.714,15.485,7.012l7.426,7.426
	l79.325,79.325l5.69,5.69C512.753,120.99,514.2,132.191,508.483,140.691z"/>
<path style="fill:#F4CED2;" d="M508.483,140.691L274.641,487.803c-0.014,0.028-0.028,0.041-0.041,0.055l-0.193,0.303
	c-0.069,0.083-0.138,0.152-0.193,0.234c-0.372,0.551-0.785,1.075-1.212,1.584c-0.152,0.179-0.317,0.358-0.482,0.537
	c-0.358,0.4-0.744,0.785-1.157,1.171c-0.193,0.179-0.386,0.372-0.592,0.551c-0.413,0.358-0.868,0.689-1.309,1.019
	c-0.193,0.138-0.372,0.303-0.565,0.427l-0.014,0.014c-0.592,0.4-1.199,0.758-1.818,1.088c-0.165,0.083-0.317,0.179-0.482,0.248
	c-0.661,0.344-1.336,0.647-2.011,0.909c-0.041,0.014-0.069,0.014-0.096,0.028c-0.73,0.276-1.447,0.496-2.19,0.675
	c-0.055,0.014-0.124,0.028-0.179,0.055c-0.758,0.179-1.502,0.303-2.259,0.4c-0.096,0.014-0.193,0.028-0.303,0.041
	c-0.744,0.083-1.502,0.138-2.259,0.138c-0.014,0-0.014,0-0.014,0c-0.014,0-0.014,0-0.028,0c-0.413,0-0.827-0.014-1.24-0.055V14.719
	h141.622c6.172,0,11.696,2.714,15.485,7.012l92.44,92.44C512.753,120.99,514.2,132.191,508.483,140.691z"/>
<path style="fill:#F5888E;" d="M505.548,114.171l-5.69-5.69H393.297l27.236-79.325l-7.426-7.426
	c-3.789-4.298-9.313-7.012-15.485-7.012h-15.829l-26.465,77.066l-70.66-70.673l6.392-6.392h-71.238l6.392,6.392l-70.012,70.012
	L129.96,14.719h-14.755c-0.138,0-0.276,0.014-0.413,0.014c-5.442-0.11-10.911,1.887-15.058,6.034l-8.486,8.486l27.209,79.229H12.02
	l-5.965,5.965c-7.605,7.605-8.045,19.659-1.323,27.773l5.166,7.591h122.748l101.381,295.23l-7.797,22.704l13.708,20.141
	c0.014,0.028,0.028,0.041,0.041,0.055l0.193,0.289c0.069,0.096,0.138,0.165,0.193,0.248c0.386,0.537,0.785,1.061,1.212,1.557
	c0.165,0.193,0.317,0.372,0.482,0.551c0.372,0.386,0.744,0.771,1.143,1.143c0.207,0.193,0.413,0.386,0.62,0.565
	c0.4,0.344,0.813,0.647,1.24,0.964c0.22,0.152,0.413,0.331,0.634,0.482c0.014,0,0.014,0,0.014,0.014
	c0.592,0.386,1.185,0.73,1.791,1.061l0.496,0.248c0.661,0.331,1.323,0.634,1.998,0.895c0.028,0,0.055,0.014,0.083,0.028
	c0.537,0.193,1.075,0.372,1.626,0.51c0.179,0.055,0.372,0.11,0.551,0.152c0.069,0.014,0.138,0.041,0.207,0.055
	c0.73,0.179,1.488,0.317,2.232,0.4c0.096,0.014,0.193,0.028,0.303,0.041c0.331,0.041,0.675,0.069,1.006,0.083
	c0.413,0.041,0.827,0.055,1.24,0.055c0.014,0,0.014,0,0.028,0c0,0,0,0,0.014,0c0.758,0,1.515-0.055,2.259-0.138
	c0.11-0.014,0.207-0.028,0.303-0.041c0.758-0.096,1.502-0.22,2.259-0.4c0.055-0.028,0.124-0.041,0.179-0.055
	c0.744-0.179,1.46-0.4,2.19-0.675c0.028-0.014,0.055-0.014,0.096-0.028c0.675-0.262,1.35-0.565,2.011-0.909
	c0.165-0.069,0.317-0.165,0.482-0.248c0.62-0.331,1.226-0.689,1.819-1.088l0.014-0.014c0.193-0.124,0.372-0.289,0.565-0.427
	c0.441-0.331,0.895-0.661,1.309-1.019c0.207-0.179,0.4-0.372,0.592-0.551c0.413-0.386,0.799-0.771,1.157-1.171
	c0.165-0.179,0.331-0.358,0.482-0.537c0.427-0.51,0.84-1.033,1.212-1.584c0.055-0.083,0.124-0.152,0.193-0.234l0.193-0.303
	c0.014-0.014,0.028-0.028,0.041-0.055l11.765-17.469l-8.679-25.294l101.381-295.23h123.231l6.144-9.12
	C514.2,132.191,512.753,120.99,505.548,114.171z M255.45,50.345l0.551,0.551l57.586,57.586H197.299L255.45,50.345z M256.001,381.063
	l-0.124,0.358l-79.532-231.61h159.049L256.001,381.063z"/>
<path style="fill:#F76976;" d="M508.483,140.691l-6.144,9.12H379.108l-101.381,295.23l8.679,25.294l-11.765,17.469
	c-0.014,0.028-0.028,0.041-0.041,0.055l-0.193,0.303c-0.069,0.083-0.138,0.152-0.193,0.234c-0.372,0.551-0.785,1.075-1.212,1.584
	c-0.152,0.179-0.317,0.358-0.482,0.537c-0.358,0.4-0.744,0.785-1.157,1.171c-0.193,0.179-0.386,0.372-0.592,0.551
	c-0.413,0.358-0.868,0.689-1.309,1.019c-0.193,0.138-0.372,0.303-0.565,0.427l-0.014,0.014c-0.592,0.4-1.199,0.758-1.819,1.088
	c-0.165,0.083-0.317,0.179-0.482,0.248c-0.661,0.344-1.336,0.647-2.011,0.909c-0.041,0.014-0.069,0.014-0.096,0.028
	c-0.73,0.276-1.447,0.496-2.19,0.675c-0.055,0.014-0.124,0.028-0.179,0.055c-0.758,0.179-1.502,0.303-2.259,0.4
	c-0.096,0.014-0.193,0.028-0.303,0.041c-0.744,0.083-1.502,0.138-2.259,0.138c-0.014,0-0.014,0-0.014,0c-0.014,0-0.014,0-0.028,0
	c-0.413,0-0.827-0.014-1.24-0.055V381.063l79.394-231.252h-79.394v-41.329h57.586l-57.586-57.586V14.719h35.061l-6.392,6.392
	l70.66,70.673l26.465-77.066h15.829c6.172,0,11.696,2.714,15.485,7.012l7.426,7.426l-27.236,79.325h106.561l5.69,5.69
	C512.753,120.99,514.2,132.191,508.483,140.691z"/>
</svg>